<?xml version="1.0" encoding="utf-8"?>
<!-- Generator: Adobe Illustrator 27.6.1, SVG Export Plug-In . SVG Version: 6.00 Build 0)  -->
<svg version="1.1" id="Layer_1" xmlns="http://www.w3.org/2000/svg" xmlns:xlink="http://www.w3.org/1999/xlink" x="0px" y="0px"
	 viewBox="0 0 288 288" style="enable-background:new 0 0 288 288;" xml:space="preserve">
<style type="text/css">
	.st0{display:none;}
	.st1{clip-path:url(#SVGID_00000059995808630246172100000004707946699966081207_);}
	.st2{fill:#244657;}
	.st3{fill:#737373;}
	.st4{opacity:0.4;clip-path:url(#SVGID_00000049197892475365408270000017503712717291197356_);}
	.st5{opacity:0.39;clip-path:url(#SVGID_00000053503614550398321490000009553326276730294975_);}
	.st6{opacity:0.66;}
	.st7{fill:url(#SVGID_00000095312136950577996560000001339801737330601611_);}
	.st8{fill:url(#SVGID_00000015346661469774784480000011612259683415864736_);}
	.st9{fill:url(#SVGID_00000091015336969278356130000002343490696077230747_);}
	.st10{fill:url(#SVGID_00000085955180521469735580000010918011937171357087_);}
	.st11{fill:url(#SVGID_00000006679915597816036300000009239138931112385680_);}
	.st12{fill:url(#SVGID_00000062189756808676763320000015205886072731553165_);}
	.st13{fill:url(#SVGID_00000127041459967116490950000001584297885401940871_);}
</style>
<g id="secondary" class="st0">
</g>
<g>
	<g id="texture">
		<g>
			<g>
				<defs>
					<path id="SVGID_1_" d="M135.7,185.9c-0.5,0-0.8,0.2-0.8,0.5c-0.2,1.6-0.3,3.8-0.3,6.8c0,2.1,0.2,4.2,0.5,6.3h9.2
						c-3.4-3.6-6-7.9-7.7-13.1C136.5,186.1,136.2,185.9,135.7,185.9z M242.5,43c-2.5-0.2-5.2-0.2-8.2-0.2c-14.2,0-24.3,2.9-30.2,8.6
						s-8.9,15.7-8.9,30v21.1c0,15.5-3.6,26.1-10.8,31.9c-5.6,4.6-14.9,7.6-27.7,9.1v6.1c21.6-1.6,38.2-5.9,49.8-13
						c4.9-3,9-6.6,12.1-10.6v-23.2h8.3c0.1-0.9,0.1-1.9,0.1-2.9V73.8c0-10.8,1.3-17.7,3.9-20.8s7.2-4.7,14-4.7h4.8v-4.6
						C247.4,43.4,245,43.2,242.5,43z M106.7,191.4c-4,2.8-12.1,4.3-24.2,4.6v3.6h26.2v-10C108.1,190.3,107.4,190.9,106.7,191.4z
						 M108.7,144.3c-17.6-1.1-29.7-4.3-36.4-9.7c-7.1-5.8-10.7-16.5-10.7-32.1V81.3c0-14.2-3-24.2-9-30s-16.1-8.6-30.2-8.6
						c-3.1,0-5.9,0.1-8.4,0.2c-2.5,0.2-4.8,0.3-6.9,0.6v4.6H12c6.8,0,11.5,1.6,14.1,4.7C28.7,55.9,30,63,30,73.7v26.2
						c0,16.1,6.8,28.3,20.4,36.7c13.1,8.1,32.5,12.5,58.3,13.5V144.3z M108.7,54.3V44H82.5v3.6c12.1,0.5,20.2,2.1,24.2,4.9
						C107.4,53,108.1,53.6,108.7,54.3z M112.7,44v25.1v75.4v5.6v24.1v25.4h18.1c-0.1-4.6-0.2-10.2-0.4-16.6
						c-0.3-10.4-0.4-17.9-0.4-22.5v-57.7h14.3V69.2c0-1.1,0-2.1,0.1-3.1V44H112.7z M174.3,44h-25.9v10.3c0.6-0.7,1.3-1.3,2-1.8
						c4.1-2.8,12-4.5,23.9-4.9V44z M247,206.3c-3.5,0-5.9-1.1-7.3-3.2c-1.2-1.9-1.9-5.8-2-11.9v-88.5H227c-0.5,9-3.2,16.7-8.3,23.2
						v7.2c0,0.2,0,2.6,0,6.3c-0.6,17-3.7,31.2-10.7,42.7c-7.8,12.9-17.8,19.4-29.9,19.3c-7-0.1-13.6-1.6-17.3-6.2
						c-3.9-4.7-4.1-11.9-4.1-22.5v-23c-2.7,0.2-5.5,0.3-8.4,0.4v-5.7c2.9-0.2,5.7-0.5,8.4-0.8v-40.8h-12.4v41.7l0,0v55.1l0,0l0,0
						l0,0l0,0c1.5,1.8,3.2,3.4,5.2,4.7c5.8,4.1,13,6.1,21.8,6.1c11.8,0,21.6-3.2,29.3-9.7c7.4-6.2,13.4-15.9,18-29
						c0,10.5,0,19.1,0,19.1c0,11.5,9.5,19.1,22.7,19.3c1.6,0,3-0.1,4.3-0.2c1.3-0.1,2.6-0.2,3.8-0.4v-3.2L247,206.3L247,206.3z
						 M135.1,199.5h-4.2c0,2.8,0.1,5.3,0.1,7.5c0,6.3-0.2,13.1-0.6,20.3c-0.4,7.2-0.6,11.5-0.6,12.9c0,5.8,1,9.9,2.9,12.3
						c2,2.4,5.1,3.7,9.5,3.7c3.8,0,6.8-0.8,8.9-2.5c2.1-1.7,3.2-4,3.2-6.9c0-2.2-3.3-9.1-9.8-20.9
						C139.3,216.6,136.1,207.8,135.1,199.5z"/>
				</defs>
				<clipPath id="SVGID_00000172425954736866446170000017564142503238106499_">
					<use xlink:href="#SVGID_1_"  style="overflow:visible;"/>
				</clipPath>
				<g style="clip-path:url(#SVGID_00000172425954736866446170000017564142503238106499_);">
					<g>
						<path class="st2" d="M135.7,185.9c-0.5,0-0.8,0.2-0.8,0.5c-0.2,1.6-0.3,3.8-0.3,6.8c0,2.1,0.2,4.2,0.5,6.3h9.2
							c-3.4-3.6-6-7.9-7.7-13.1C136.5,186.1,136.2,185.9,135.7,185.9z"/>
						<path class="st2" d="M242.5,43c-2.5-0.2-5.2-0.2-8.2-0.2c-14.2,0-24.3,2.9-30.2,8.6s-8.9,15.7-8.9,30v21.1
							c0,15.5-3.6,26.1-10.8,31.9c-5.6,4.6-14.9,7.6-27.7,9.1v6.1c21.6-1.6,38.2-5.9,49.8-13c4.9-3,9-6.6,12.1-10.6v-23.2h8.3
							c0.1-0.9,0.1-1.9,0.1-2.9V73.8c0-10.8,1.3-17.7,3.9-20.8s7.2-4.7,14-4.7h4.8v-4.6C247.4,43.4,245,43.2,242.5,43z"/>
						<path class="st2" d="M106.7,191.4c-4,2.8-12.1,4.3-24.2,4.6v3.6h26.2v-10C108.1,190.3,107.4,190.9,106.7,191.4z"/>
						<path class="st2" d="M108.7,144.3c-17.6-1.1-29.7-4.3-36.4-9.7c-7.1-5.8-10.7-16.5-10.7-32.1V81.3c0-14.2-3-24.2-9-30
							s-16.1-8.6-30.2-8.6c-3.1,0-5.9,0.1-8.4,0.2c-2.5,0.2-4.8,0.3-6.9,0.6v4.6H12c6.8,0,11.5,1.6,14.1,4.7
							C28.7,55.9,30,63,30,73.7v26.2c0,16.1,6.8,28.3,20.4,36.7c13.1,8.1,32.5,12.5,58.3,13.5V144.3z"/>
						<path class="st2" d="M108.7,54.3V44H82.5v3.6c12.1,0.5,20.2,2.1,24.2,4.9C107.4,53,108.1,53.6,108.7,54.3z"/>
						<path class="st2" d="M112.7,44v25.1v75.4v5.6v24.1v25.4h18.1c-0.1-4.6-0.2-10.2-0.4-16.6c-0.3-10.4-0.4-17.9-0.4-22.5v-57.7
							h14.3V69.2c0-1.1,0-2.1,0.1-3.1V44H112.7z"/>
						<path class="st2" d="M174.3,44h-25.9v10.3c0.6-0.7,1.3-1.3,2-1.8c4.1-2.8,12-4.5,23.9-4.9V44z"/>
					</g>
					<g>
						<path class="st3" d="M247,206.3c-3.5,0-5.9-1.1-7.3-3.2c-1.2-1.9-1.9-5.8-2-11.9v-88.5H227c-0.5,9-3.2,16.7-8.3,23.2v7.2
							c0,0.2,0,2.6,0,6.3c-0.6,17-3.7,31.2-10.7,42.7c-7.8,12.9-17.8,19.4-29.9,19.3c-7-0.1-13.6-1.6-17.3-6.2
							c-3.9-4.7-4.1-11.9-4.1-22.5v-23c-2.7,0.2-5.5,0.3-8.4,0.4v-5.7c2.9-0.2,5.7-0.5,8.4-0.8v-40.8h-12.4v41.7l0,0v55.1l0,0l0,0
							l0,0l0,0c1.5,1.8,3.2,3.4,5.2,4.7c5.8,4.1,13,6.1,21.8,6.1c11.8,0,21.6-3.2,29.3-9.7c7.4-6.2,13.4-15.9,18-29
							c0,10.5,0,19.1,0,19.1c0,11.5,9.5,19.1,22.7,19.3c1.6,0,3-0.1,4.3-0.2c1.3-0.1,2.6-0.2,3.8-0.4v-3.2L247,206.3L247,206.3z"/>
						<path class="st3" d="M135.1,199.5h-4.2c0,2.8,0.1,5.3,0.1,7.5c0,6.3-0.2,13.1-0.6,20.3c-0.4,7.2-0.6,11.5-0.6,12.9
							c0,5.8,1,9.9,2.9,12.3c2,2.4,5.1,3.7,9.5,3.7c3.8,0,6.8-0.8,8.9-2.5c2.1-1.7,3.2-4,3.2-6.9c0-2.2-3.3-9.1-9.8-20.9
							C139.3,216.6,136.1,207.8,135.1,199.5z"/>
					</g>
				</g>
			</g>
			<g>
				<defs>
					<path id="SVGID_00000158749338271016377150000012763117330679601283_" d="M135.7,185.9c-0.5,0-0.8,0.2-0.8,0.5
						c-0.2,1.6-0.3,3.8-0.3,6.8c0,2.1,0.2,4.2,0.5,6.3h9.2c-3.4-3.6-6-7.9-7.7-13.1C136.5,186.1,136.2,185.9,135.7,185.9z M242.5,43
						c-2.5-0.2-5.2-0.2-8.2-0.2c-14.2,0-24.3,2.9-30.2,8.6s-8.9,15.7-8.9,30v21.1c0,15.5-3.6,26.1-10.8,31.9
						c-5.6,4.6-14.9,7.6-27.7,9.1v6.1c21.6-1.6,38.2-5.9,49.8-13c4.9-3,9-6.6,12.1-10.6v-23.2h8.3c0.1-0.9,0.1-1.9,0.1-2.9V73.8
						c0-10.8,1.3-17.7,3.9-20.8s7.2-4.7,14-4.7h4.8v-4.6C247.4,43.4,245,43.2,242.5,43z M106.7,191.4c-4,2.8-12.1,4.3-24.2,4.6v3.6
						h26.2v-10C108.1,190.3,107.4,190.9,106.7,191.4z M108.7,144.3c-17.6-1.1-29.7-4.3-36.4-9.7c-7.1-5.8-10.7-16.5-10.7-32.1V81.3
						c0-14.2-3-24.2-9-30s-16.1-8.6-30.2-8.6c-3.1,0-5.9,0.1-8.4,0.2c-2.5,0.2-4.8,0.3-6.9,0.6v4.6H12c6.8,0,11.5,1.6,14.1,4.7
						C28.7,55.9,30,63,30,73.7v26.2c0,16.1,6.8,28.3,20.4,36.7c13.1,8.1,32.5,12.5,58.3,13.5V144.3z M108.7,54.3V44H82.5v3.6
						c12.1,0.5,20.2,2.1,24.2,4.9C107.4,53,108.1,53.6,108.7,54.3z M112.7,44v25.1v75.4v5.6v24.1v25.4h18.1
						c-0.1-4.6-0.2-10.2-0.4-16.6c-0.3-10.4-0.4-17.9-0.4-22.5v-57.7h14.3V69.2c0-1.1,0-2.1,0.1-3.1V44H112.7z M174.3,44h-25.9v10.3
						c0.6-0.7,1.3-1.3,2-1.8c4.1-2.8,12-4.5,23.9-4.9V44z M247,206.3c-3.5,0-5.9-1.1-7.3-3.2c-1.2-1.9-1.9-5.8-2-11.9v-88.5H227
						c-0.5,9-3.2,16.7-8.3,23.2v7.2c0,0.2,0,2.6,0,6.3c-0.6,17-3.7,31.2-10.7,42.7c-7.8,12.9-17.8,19.4-29.9,19.3
						c-7-0.1-13.6-1.6-17.3-6.2c-3.9-4.7-4.1-11.9-4.1-22.5v-23c-2.7,0.2-5.5,0.3-8.4,0.4v-5.7c2.9-0.2,5.7-0.5,8.4-0.8v-40.8h-12.4
						v41.7l0,0v55.1l0,0l0,0l0,0l0,0c1.5,1.8,3.2,3.4,5.2,4.7c5.8,4.1,13,6.1,21.8,6.1c11.8,0,21.6-3.2,29.3-9.7
						c7.4-6.2,13.4-15.9,18-29c0,10.5,0,19.1,0,19.1c0,11.5,9.5,19.1,22.7,19.3c1.6,0,3-0.1,4.3-0.2c1.3-0.1,2.6-0.2,3.8-0.4v-3.2
						L247,206.3L247,206.3z M135.1,199.5h-4.2c0,2.8,0.1,5.3,0.1,7.5c0,6.3-0.2,13.1-0.6,20.3c-0.4,7.2-0.6,11.5-0.6,12.9
						c0,5.8,1,9.9,2.9,12.3c2,2.4,5.1,3.7,9.5,3.7c3.8,0,6.8-0.8,8.9-2.5c2.1-1.7,3.2-4,3.2-6.9c0-2.2-3.3-9.1-9.8-20.9
						C139.3,216.6,136.1,207.8,135.1,199.5z"/>
				</defs>
				<clipPath id="SVGID_00000039104878268614424050000017570118595812337797_">
					<use xlink:href="#SVGID_00000158749338271016377150000012763117330679601283_"  style="overflow:visible;"/>
				</clipPath>
				
					<g transform="matrix(1 0 0 1 0 0)" style="opacity:0.4;clip-path:url(#SVGID_00000039104878268614424050000017570118595812337797_);">
					
						<image style="overflow:visible;enable-background:new    ;" width="1920" height="1080" xlink:href="material/math background.png"  transform="matrix(0.2001 0 0 0.2044 -21.9812 35.1561)">
					</image>
				</g>
			</g>
			<g>
				<defs>
					<path id="SVGID_00000123412131158755781040000012599446090046984872_" d="M135.7,185.9c-0.5,0-0.8,0.2-0.8,0.5
						c-0.2,1.6-0.3,3.8-0.3,6.8c0,2.1,0.2,4.2,0.5,6.3h9.2c-3.4-3.6-6-7.9-7.7-13.1C136.5,186.1,136.2,185.9,135.7,185.9z M242.5,43
						c-2.5-0.2-5.2-0.2-8.2-0.2c-14.2,0-24.3,2.9-30.2,8.6s-8.9,15.7-8.9,30v21.1c0,15.5-3.6,26.1-10.8,31.9
						c-5.6,4.6-14.9,7.6-27.7,9.1v6.1c21.6-1.6,38.2-5.9,49.8-13c4.9-3,9-6.6,12.1-10.6v-23.2h8.3c0.1-0.9,0.1-1.9,0.1-2.9V73.8
						c0-10.8,1.3-17.7,3.9-20.8s7.2-4.7,14-4.7h4.8v-4.6C247.4,43.4,245,43.2,242.5,43z M106.7,191.4c-4,2.8-12.1,4.3-24.2,4.6v3.6
						h26.2v-10C108.1,190.3,107.4,190.9,106.7,191.4z M108.7,144.3c-17.6-1.1-29.7-4.3-36.4-9.7c-7.1-5.8-10.7-16.5-10.7-32.1V81.3
						c0-14.2-3-24.2-9-30s-16.1-8.6-30.2-8.6c-3.1,0-5.9,0.1-8.4,0.2c-2.5,0.2-4.8,0.3-6.9,0.6v4.6H12c6.8,0,11.5,1.6,14.1,4.7
						C28.7,55.9,30,63,30,73.7v26.2c0,16.1,6.8,28.3,20.4,36.7c13.1,8.1,32.5,12.5,58.3,13.5V144.3z M108.7,54.3V44H82.5v3.6
						c12.1,0.5,20.2,2.1,24.2,4.9C107.4,53,108.1,53.6,108.7,54.3z M112.7,44v25.1v75.4v5.6v24.1v25.4h18.1
						c-0.1-4.6-0.2-10.2-0.4-16.6c-0.3-10.4-0.4-17.9-0.4-22.5v-57.7h14.3V69.2c0-1.1,0-2.1,0.1-3.1V44H112.7z M174.3,44h-25.9v10.3
						c0.6-0.7,1.3-1.3,2-1.8c4.1-2.8,12-4.5,23.9-4.9V44z M247,206.3c-3.5,0-5.9-1.1-7.3-3.2c-1.2-1.9-1.9-5.8-2-11.9v-88.5H227
						c-0.5,9-3.2,16.7-8.3,23.2v7.2c0,0.2,0,2.6,0,6.3c-0.6,17-3.7,31.2-10.7,42.7c-7.8,12.9-17.8,19.4-29.9,19.3
						c-7-0.1-13.6-1.6-17.3-6.2c-3.9-4.7-4.1-11.9-4.1-22.5v-23c-2.7,0.2-5.5,0.3-8.4,0.4v-5.7c2.9-0.2,5.7-0.5,8.4-0.8v-40.8h-12.4
						v41.7l0,0v55.1l0,0l0,0l0,0l0,0c1.5,1.8,3.2,3.4,5.2,4.7c5.8,4.1,13,6.1,21.8,6.1c11.8,0,21.6-3.2,29.3-9.7
						c7.4-6.2,13.4-15.9,18-29c0,10.5,0,19.1,0,19.1c0,11.5,9.5,19.1,22.7,19.3c1.6,0,3-0.1,4.3-0.2c1.3-0.1,2.6-0.2,3.8-0.4v-3.2
						L247,206.3L247,206.3z M135.1,199.5h-4.2c0,2.8,0.1,5.3,0.1,7.5c0,6.3-0.2,13.1-0.6,20.3c-0.4,7.2-0.6,11.5-0.6,12.9
						c0,5.8,1,9.9,2.9,12.3c2,2.4,5.1,3.7,9.5,3.7c3.8,0,6.8-0.8,8.9-2.5c2.1-1.7,3.2-4,3.2-6.9c0-2.2-3.3-9.1-9.8-20.9
						C139.3,216.6,136.1,207.8,135.1,199.5z"/>
				</defs>
				<clipPath id="SVGID_00000070085708817257534360000017987989529640447376_">
					<use xlink:href="#SVGID_00000123412131158755781040000012599446090046984872_"  style="overflow:visible;"/>
				</clipPath>
				<g style="opacity:0.39;clip-path:url(#SVGID_00000070085708817257534360000017987989529640447376_);">
					
						<image style="overflow:visible;enable-background:new    ;" width="1920" height="1080" xlink:href="material/math background_white.png"  transform="matrix(0.2721 0 0 0.2721 -119.2159 14.957)">
					</image>
				</g>
			</g>
		</g>
	</g>
	<g id="primary">
		<g class="st6">
			
				<linearGradient id="SVGID_00000122712340735941297750000017259540238606862723_" gradientUnits="userSpaceOnUse" x1="139.45" y1="506.786" x2="139.45" y2="493.186" gradientTransform="matrix(1 0 0 1 0 -307.386)">
				<stop  offset="0" style="stop-color:#1D1D1B"/>
				<stop  offset="0.1204" style="stop-color:#1D1D1B;stop-opacity:0.8796"/>
				<stop  offset="1" style="stop-color:#1D1D1B;stop-opacity:0"/>
			</linearGradient>
			<path style="fill:url(#SVGID_00000122712340735941297750000017259540238606862723_);" d="M135.7,185.8c-0.5,0-0.8,0.2-0.8,0.5
				c-0.2,1.6-0.3,3.8-0.3,6.8c0,2.1,0.2,4.2,0.5,6.3h9.2c-3.4-3.6-6-7.9-7.7-13.1C136.5,186,136.2,185.8,135.7,185.8z"/>
			
				<linearGradient id="SVGID_00000093154422397497909320000009175832223410199175_" gradientUnits="userSpaceOnUse" x1="203.2" y1="456.886" x2="203.2" y2="350.086" gradientTransform="matrix(1 0 0 1 0 -307.386)">
				<stop  offset="0" style="stop-color:#1D1D1B;stop-opacity:0.6"/>
				<stop  offset="0.1204" style="stop-color:#1D1D1B;stop-opacity:0.5278"/>
				<stop  offset="1" style="stop-color:#1D1D1B;stop-opacity:0"/>
			</linearGradient>
			<path style="fill:url(#SVGID_00000093154422397497909320000009175832223410199175_);" d="M242.5,42.9c-2.5-0.2-5.2-0.2-8.2-0.2
				c-14.2,0-24.3,2.9-30.2,8.6s-8.9,15.7-8.9,30v21.1c0,15.5-3.6,26.1-10.8,31.9c-5.6,4.6-14.9,7.6-27.7,9.1v6.1
				c21.6-1.6,38.2-5.9,49.8-13c4.9-3,9-6.6,12.1-10.6v-23.2h8.3c0.1-0.9,0.1-1.9,0.1-2.9V73.6c0-10.8,1.3-17.7,3.9-20.8
				s7.2-4.7,14-4.7h4.8v-4.6C247.4,43.3,245,43.1,242.5,42.9z"/>
			
				<linearGradient id="SVGID_00000166676982949745329090000009644876697515324063_" gradientUnits="userSpaceOnUse" x1="95.6" y1="506.886" x2="95.6" y2="496.8474" gradientTransform="matrix(1 0 0 1 0 -307.386)">
				<stop  offset="0" style="stop-color:#1D1D1B"/>
				<stop  offset="0.1204" style="stop-color:#1D1D1B;stop-opacity:0.8796"/>
				<stop  offset="1" style="stop-color:#1D1D1B;stop-opacity:0"/>
			</linearGradient>
			<path style="fill:url(#SVGID_00000166676982949745329090000009644876697515324063_);" d="M106.7,191.3c-4,2.8-12.1,4.3-24.2,4.6
				v3.6h26.2v-10C108.1,190.2,107.4,190.8,106.7,191.3z"/>
			
				<linearGradient id="SVGID_00000029759793045715336940000017821505580268895368_" gradientUnits="userSpaceOnUse" x1="57.9" y1="457.286" x2="57.9" y2="349.986" gradientTransform="matrix(1 0 0 1 0 -307.386)">
				<stop  offset="0" style="stop-color:#1D1D1B;stop-opacity:0.6"/>
				<stop  offset="0.1204" style="stop-color:#1D1D1B;stop-opacity:0.5278"/>
				<stop  offset="1" style="stop-color:#1D1D1B;stop-opacity:0"/>
			</linearGradient>
			<path style="fill:url(#SVGID_00000029759793045715336940000017821505580268895368_);" d="M108.7,144.2
				c-17.6-1.1-29.7-4.3-36.4-9.7c-7.1-5.8-10.7-16.5-10.7-32.1V81.2c0-14.2-3-24.2-9-30s-16.1-8.6-30.2-8.6c-3.1,0-5.9,0.1-8.4,0.2
				c-2.5,0.2-4.8,0.3-6.9,0.6V48H12c6.8,0,11.5,1.6,14.1,4.7c2.6,3.1,3.9,10.1,3.9,20.8v26.2c0,16.1,6.8,28.3,20.4,36.7
				c13.1,8.1,32.5,12.5,58.3,13.5V144.2z"/>
			
				<linearGradient id="SVGID_00000137822943669484000870000009631716091863824571_" gradientUnits="userSpaceOnUse" x1="128.55" y1="506.886" x2="128.55" y2="351.286" gradientTransform="matrix(1 0 0 1 0 -307.386)">
				<stop  offset="0" style="stop-color:#1D1D1B"/>
				<stop  offset="0.1203" style="stop-color:#1D1D1B;stop-opacity:0.8797"/>
				<stop  offset="1" style="stop-color:#1D1D1B;stop-opacity:0"/>
			</linearGradient>
			<path style="fill:url(#SVGID_00000137822943669484000870000009631716091863824571_);" d="M112.7,43.9V69v75.4v5.6v24.1v25.4h18.1
				c-0.1-4.6-0.2-10.2-0.4-16.6c-0.3-10.4-0.4-17.9-0.4-22.5v-57.7h14.3V69c0-1.1,0-2.1,0.1-3.1v-22H112.7z"/>
		</g>
		<g>
			
				<linearGradient id="SVGID_00000062905245401226750620000003741430068266050197_" gradientUnits="userSpaceOnUse" x1="196.85" y1="517.686" x2="196.85" y2="409.986" gradientTransform="matrix(1 0 0 1 0 -307.386)">
				<stop  offset="0" style="stop-color:#1D1D1B;stop-opacity:0.6"/>
				<stop  offset="0.7725" style="stop-color:#1D1D1B;stop-opacity:0"/>
			</linearGradient>
			<path style="fill:url(#SVGID_00000062905245401226750620000003741430068266050197_);" d="M247,206.2c-3.5,0-5.9-1.1-7.3-3.2
				c-1.2-1.9-1.9-5.8-2-11.9v-88.5H227c-0.5,9-3.2,16.7-8.3,23.2v7.2c0,0.2,0,2.6,0,6.3c-0.6,17-3.7,31.2-10.7,42.7
				c-7.8,12.9-17.8,19.4-29.9,19.3c-7-0.1-13.6-1.6-17.3-6.2c-3.9-4.7-4.1-11.9-4.1-22.5v-23c-2.7,0.2-5.5,0.3-8.4,0.4v-5.7
				c2.9-0.2,5.7-0.5,8.4-0.8v-40.8h-12.4v41.7l0,0v55.1l0,0l0,0l0,0l0,0c1.5,1.8,3.2,3.4,5.2,4.7c5.8,4.1,13,6.1,21.8,6.1
				c11.8,0,21.6-3.2,29.3-9.7c7.4-6.2,13.4-15.9,18-29c0,10.5,0,19.1,0,19.1c0,11.5,9.5,19.1,22.7,19.3c1.6,0,3-0.1,4.3-0.2
				c1.3-0.1,2.6-0.2,3.8-0.4v-3.2L247,206.2L247,206.2z"/>
			
				<linearGradient id="SVGID_00000023985236996202644030000017464753353594187400_" gradientUnits="userSpaceOnUse" x1="142.05" y1="563.486" x2="142.05" y2="506.786" gradientTransform="matrix(1 0 0 1 0 -307.386)">
				<stop  offset="0" style="stop-color:#1D1D1B;stop-opacity:0.8"/>
				<stop  offset="0.656" style="stop-color:#1D1D1B;stop-opacity:0"/>
			</linearGradient>
			<path style="fill:url(#SVGID_00000023985236996202644030000017464753353594187400_);" d="M135.1,199.4h-4.2
				c0,2.8,0.1,5.3,0.1,7.5c0,6.3-0.2,13.1-0.6,20.3c-0.4,7.2-0.6,11.5-0.6,12.9c0,5.8,1,9.9,2.9,12.3c2,2.4,5.1,3.7,9.5,3.7
				c3.8,0,6.8-0.8,8.9-2.5c2.1-1.7,3.2-4,3.2-6.9c0-2.2-3.3-9.1-9.8-20.9C139.3,216.5,136.1,207.7,135.1,199.4z"/>
		</g>
	</g>
</g>
</svg>
