<?xml version="1.0" encoding="utf-8"?>
<!-- Generator: Adobe Illustrator 27.6.1, SVG Export Plug-In . SVG Version: 6.00 Build 0)  -->
<svg version="1.1" id="Layer_1" xmlns="http://www.w3.org/2000/svg" xmlns:xlink="http://www.w3.org/1999/xlink" x="0px" y="0px"
	 viewBox="0 0 288 288" style="enable-background:new 0 0 288 288;" xml:space="preserve">
<style type="text/css">
	.st0{fill:#737373;}
	.st1{fill:#244657;}
	.st2{fill:none;stroke:#8D8D8E;stroke-miterlimit:10;}
</style>
<g>
	<path class="st0" d="M145.09,149.99h-0.75v24.13c0,8.27,2.05,13.88,6.15,16.82c2.24,1.61,5.74,2.91,10.19,3.66
		c-2.65-4.13-3.96-11.53-3.96-22.15l0-22.98C152.98,149.73,149.12,149.88,145.09,149.99z"/>
	<path class="st0" d="M145.04,144.42c4.17-0.19,8.07-0.57,11.67-0.99l-0.01-40.8h-12.38v41.68L145.04,144.42z"/>
	<path class="st0" d="M277.14,180.1c-0.05-0.62-0.08-1.16-0.08-1.62h-5.1v2.67c0,6.5-1.18,11.47-3.53,14.91
		c-2.35,3.44-5.83,5.16-10.43,5.16c-4.3,0-7.46-1.74-9.45-5.22c-2-3.48-3-8.82-3-16.01v-77.36h-18.61
		c-0.47,9.01-3.23,16.74-8.26,23.17v7.22c0,19.72-3.9,36.01-11.71,48.89c-7.8,12.87-17.76,19.31-29.86,19.31
		c-4.22,0-7.72-0.58-10.51-1.78l-23.29-0.04c1.55,1.8,3.27,3.4,5.21,4.77c5.75,4.06,13.03,6.09,21.84,6.09
		c11.8,0,21.56-3.23,29.27-9.69c7.7-6.46,13.9-16.68,18.61-30.68c0.1-0.39,0.38-0.54,0.83-0.46c0.45,0.08,0.67,0.27,0.67,0.58
		c0.1,13.61,2.7,23.72,7.8,30.33c5.1,6.61,12.66,9.92,22.66,9.92c8.6,0,15.26-2.36,19.96-7.08c4.7-4.72,7.05-11.4,7.05-20.07
		C277.21,181.73,277.18,180.72,277.14,180.1z"/>
	<path class="st0" d="M135.06,199.4h-4.24c0.04,2.83,0.07,5.33,0.07,7.5c0,6.34-0.2,13.11-0.6,20.3c-0.4,7.19-0.6,11.48-0.6,12.87
		c0,5.8,0.98,9.92,2.93,12.35c1.95,2.44,5.13,3.65,9.53,3.65c3.8,0,6.78-0.83,8.93-2.49c2.15-1.66,3.23-3.96,3.23-6.9
		c0-2.17-3.28-9.13-9.83-20.88C139.26,216.46,136.13,207.66,135.06,199.4z"/>
</g>
<g>
	<path class="st1" d="M135.63,185.83c-0.45,0-0.68,0.16-0.68,0.46c-0.2,1.55-0.3,3.83-0.3,6.84c0,2.07,0.15,4.17,0.42,6.31h8.25
		c-3.04-3.55-5.35-7.92-6.87-13.15C136.35,185.99,136.08,185.83,135.63,185.83z"/>
	<path class="st1" d="M156.71,149.46c21.56-1.56,38.19-5.88,49.83-13c4.95-3.03,9-6.57,12.15-10.62v-23.17h8.26
		c0.05-0.94,0.08-1.89,0.08-2.86V73.6c0-10.75,1.3-17.69,3.9-20.82c2.6-3.13,7.25-4.7,13.96-4.7h4.8v-4.64
		c-2.3-0.23-4.71-0.42-7.2-0.58c-2.5-0.15-5.25-0.23-8.25-0.23c-14.21,0-24.26,2.86-30.17,8.58c-5.9,5.72-8.85,15.74-8.85,30.04
		v21.11c0,15.47-3.6,26.12-10.81,31.95c-5.62,4.56-14.87,7.59-27.69,9.11V149.46z"/>
	<path class="st1" d="M174.35,195.85c-5.35-0.14-9.92-0.58-13.69-1.26c0.15,0.23,0.32,0.48,0.48,0.69c1.33,1.8,3.18,3.17,5.49,4.16
		h7.42L174.35,195.85z"/>
	<path class="st1" d="M106.67,191.27c-4,2.75-12.06,4.27-24.16,4.58v3.6h48.33c-0.07-4.65-0.2-10.19-0.39-16.63
		c-0.3-10.36-0.45-17.86-0.45-22.5v-57.65h14.34V68.96c0-8.27,2.02-13.82,6.08-16.64c4.05-2.82,12.03-4.47,23.94-4.93v-3.6H82.51
		v3.6c12.1,0.46,20.16,2.11,24.16,4.93c4,2.82,6,8.37,6,16.64v75.39h-0.75c-19.31-0.85-32.52-4.14-39.62-9.86
		c-7.11-5.8-10.66-16.51-10.66-32.13V81.25c0-14.23-3-24.22-9-29.98c-6-5.76-16.06-8.64-30.17-8.64c-3.1,0-5.9,0.08-8.4,0.23
		c-2.5,0.16-4.8,0.35-6.9,0.58v4.64h4.8c6.8,0,11.5,1.57,14.11,4.7c2.6,3.13,3.9,10.07,3.9,20.82v26.21
		c0,16.08,6.8,28.3,20.41,36.65c13.61,8.35,34.12,12.87,61.53,13.57h0.75v24.13C112.67,182.82,110.67,188.52,106.67,191.27z"/>
</g>
<path class="st2" d="M214.33,397.67"/>
<path class="st2" d="M-42.78,275.47"/>
</svg>
