<?xml version="1.0" encoding="utf-8"?>
<!-- Generator: Adobe Illustrator 27.6.1, SVG Export Plug-In . SVG Version: 6.00 Build 0)  -->
<svg version="1.1" id="Layer_1" xmlns="http://www.w3.org/2000/svg" xmlns:xlink="http://www.w3.org/1999/xlink" x="0px" y="0px"
	 viewBox="0 0 262.6 227.9" style="enable-background:new 0 0 262.6 227.9;" xml:space="preserve">
<style type="text/css">
	.st0{fill:none;stroke:#8D8D8E;stroke-miterlimit:10;}
	.st1{fill:#FFFFFF;}
</style>
<path class="st0" d="M-39,240.4"/>
<g>
	<g>
		<path class="st1" d="M139.5,150.7c-0.5,0-0.8,0.2-0.8,0.5c-0.2,1.6-0.3,3.8-0.3,6.8c0,2.1,0.2,4.2,0.5,6.3h9.2
			c-3.4-3.6-6-7.9-7.7-13.1C140.3,150.9,140,150.7,139.5,150.7z"/>
		<path class="st1" d="M246.3,7.8c-2.5-0.2-5.2-0.2-8.2-0.2c-14.2,0-24.3,2.9-30.2,8.6s-8.9,15.7-8.9,30v21.1
			c0,15.5-3.6,26.1-10.8,31.9c-5.6,4.6-14.9,7.6-27.7,9.1v6.1c21.6-1.6,38.2-5.9,49.8-13c4.9-3,9-6.6,12.1-10.6V67.6h8.3
			c0.1-0.9,0.1-1.9,0.1-2.9V38.5c0-10.8,1.3-17.7,3.9-20.8s7.2-4.7,14-4.7h4.8V8.4C251.2,8.2,248.8,8,246.3,7.8z"/>
		<path class="st1" d="M110.5,156.2c-4,2.8-12.1,4.3-24.2,4.6v3.6h26.2v-10C111.9,155.1,111.2,155.7,110.5,156.2z"/>
		<path class="st1" d="M112.5,109.1c-17.6-1.1-29.7-4.3-36.4-9.7C69,93.6,65.4,82.9,65.4,67.3V46.1c0-14.2-3-24.2-9-30
			S40.3,7.5,26.2,7.5c-3.1,0-5.9,0.1-8.4,0.2C15.3,7.9,13,8,10.9,8.3v4.6h4.9c6.8,0,11.5,1.6,14.1,4.7c2.6,3.1,3.9,10.1,3.9,20.8
			v26.2c0,16.1,6.8,28.3,20.4,36.7c13.1,8.1,32.5,12.5,58.3,13.5V109.1z"/>
		<path class="st1" d="M112.5,19.1V8.8H86.3v3.6c12.1,0.5,20.2,2.1,24.2,4.9C111.2,17.8,111.9,18.4,112.5,19.1z"/>
		<path class="st1" d="M116.5,8.8v25.1v75.4v5.6V139v25.4h18.1c-0.1-4.6-0.2-10.2-0.4-16.6c-0.3-10.4-0.4-17.9-0.4-22.5V67.6h14.3
			V33.9c0-1.1,0-2.1,0.1-3.1v-22H116.5z"/>
		<path class="st1" d="M178.1,8.8h-25.9v10.3c0.6-0.7,1.3-1.3,2-1.8c4.1-2.8,12-4.5,23.9-4.9V8.8z"/>
	</g>
	<g>
		<path class="st1" d="M250.8,171.1c-3.5,0-5.9-1.1-7.3-3.2c-1.2-1.9-1.9-5.8-2-11.9V67.5h-10.7c-0.5,9-3.2,16.7-8.3,23.2v7.2
			c0,0.2,0,2.6,0,6.3c-0.6,17-3.7,31.2-10.7,42.7c-7.8,12.9-17.8,19.4-29.9,19.3c-7-0.1-13.6-1.6-17.3-6.2
			c-3.9-4.7-4.1-11.9-4.1-22.5v-23c-2.7,0.2-5.5,0.3-8.4,0.4v-5.7c2.9-0.2,5.7-0.5,8.4-0.8V67.6h-12.4v41.7l0,0v55.1l0,0l0,0l0,0
			l0,0c1.5,1.8,3.2,3.4,5.2,4.7c5.8,4.1,13,6.1,21.8,6.1c11.8,0,21.6-3.2,29.3-9.7c7.4-6.2,13.4-15.9,18-29c0,10.5,0,19.1,0,19.1
			c0,11.5,9.5,19.1,22.7,19.3c1.6,0,3-0.1,4.3-0.2c1.3-0.1,2.6-0.2,3.8-0.4v-3.2L250.8,171.1L250.8,171.1z"/>
		<path class="st1" d="M138.9,164.3h-4.2c0,2.8,0.1,5.3,0.1,7.5c0,6.3-0.2,13.1-0.6,20.3c-0.4,7.2-0.6,11.5-0.6,12.9
			c0,5.8,1,9.9,2.9,12.3c2,2.4,5.1,3.7,9.5,3.7c3.8,0,6.8-0.8,8.9-2.5c2.1-1.7,3.2-4,3.2-6.9c0-2.2-3.3-9.1-9.8-20.9
			C143.1,181.4,139.9,172.6,138.9,164.3z"/>
	</g>
</g>
</svg>
